<?xml version="1.0" standalone="no"?>
<!DOCTYPE svg PUBLIC "-//W3C//DTD SVG 20010904//EN"
 "http://www.w3.org/TR/2001/REC-SVG-20010904/DTD/svg10.dtd">
<svg version="1.0" xmlns="http://www.w3.org/2000/svg"
 width="1080.000000pt" height="1080.000000pt" viewBox="0 0 1080.000000 1080.000000"
 preserveAspectRatio="xMidYMid meet">
<metadata>
Created by potrace 1.14, written by Peter Selinger 2001-2017
</metadata>
<g transform="translate(0.000000,1080.000000) scale(0.100000,-0.100000)"
fill="#000000" stroke="none">
<path d="M3688 10776 c-208 -86 -359 -266 -398 -476 -9 -48 -13 -316 -13
-1035 0 -533 3 -988 7 -1010 47 -282 268 -504 540 -541 22 -3 321 -5 662 -6
l622 0 -2 -1007 -1 -1006 -1915 -5 c-1660 -4 -1919 -7 -1945 -20 -56 -27 -102
-71 -131 -123 l-29 -52 -3 -1547 c-2 -1222 -5 -1548 -15 -1549 -6 0 -136 -2
-287 -3 -300 -4 -323 -7 -445 -68 -133 -67 -232 -171 -306 -323 l-24 -50 0
-745 0 -745 43 -87 c31 -61 63 -107 110 -155 76 -79 119 -110 212 -151 62 -28
81 -33 175 -48 55 -9 1534 -8 1618 0 211 22 416 171 506 368 55 121 54 114 57
796 2 686 2 690 -53 822 -68 163 -208 292 -388 355 -79 28 -83 28 -355 31
-151 2 -281 3 -288 3 -10 1 -12 279 -10 1372 l3 1372 1720 -1 c946 0 1727 -1
1736 -1 15 -1 17 -109 17 -1371 0 -1017 -3 -1370 -12 -1371 -6 0 -130 -1 -276
-3 -217 -2 -277 -6 -330 -20 -70 -19 -167 -62 -188 -83 -7 -7 -17 -13 -21 -13
-12 0 -114 -100 -150 -147 -17 -23 -45 -71 -61 -107 -60 -131 -60 -133 -60
-817 0 -589 1 -630 20 -702 51 -201 194 -367 380 -440 62 -24 85 -31 155 -43
45 -8 1572 -8 1630 0 76 10 123 25 200 62 187 90 329 284 352 483 4 31 7 331
7 666 -1 545 -3 617 -18 675 -54 201 -196 364 -386 440 -99 41 -115 42 -408
45 -150 2 -276 6 -279 9 -8 8 -8 2725 0 2733 5 4 3300 8 3447 4 l25 -1 0
-1364 c0 -751 -3 -1368 -7 -1372 -4 -3 -130 -8 -280 -9 -305 -2 -328 -5 -458
-68 -65 -32 -103 -59 -161 -117 -76 -75 -86 -89 -133 -188 -60 -125 -60 -131
-60 -837 0 -602 1 -611 23 -690 70 -251 279 -435 536 -471 62 -9 1576 -9 1630
0 258 42 460 216 529 457 27 95 29 123 28 739 0 520 -2 615 -16 673 -55 236
-225 413 -461 484 -37 11 -118 16 -320 19 -148 1 -277 3 -286 3 -14 1 -16 144
-16 1539 0 1519 0 1538 -20 1583 -29 66 -79 118 -142 146 l-54 25 -1904 0
c-1047 0 -1903 3 -1904 7 -1 9 -1 1929 0 1973 l1 36 628 0 c395 1 646 5 680
11 125 25 239 86 328 176 85 87 121 147 167 280 20 59 20 80 23 1050 3 1109 4
1085 -66 1230 -62 128 -159 229 -278 289 -31 16 -66 34 -77 40 -14 8 -475 12
-1670 13 l-1650 3 -57 -24z"/>
</g>
</svg>
