<?xml version="1.0" encoding="UTF-8" standalone="no"?>
<!-- Created with Inkscape (http://www.inkscape.org/) -->

<svg
   width="48.9133mm"
   height="8.1028671mm"
   viewBox="0 0 48.9133 8.1028671"
   version="1.1"
   id="svg1"
   inkscape:version="1.3 (0e150ed6c4, 2023-07-21)"
   sodipodi:docname="Patterns kompakt einzeilig weiss.svg"
   xmlns:inkscape="http://www.inkscape.org/namespaces/inkscape"
   xmlns:sodipodi="http://sodipodi.sourceforge.net/DTD/sodipodi-0.dtd"
   xmlns="http://www.w3.org/2000/svg"
   xmlns:svg="http://www.w3.org/2000/svg">
  <sodipodi:namedview
     id="namedview1"
     pagecolor="#ffffff"
     bordercolor="#666666"
     borderopacity="1.0"
     inkscape:showpageshadow="2"
     inkscape:pageopacity="0.0"
     inkscape:pagecheckerboard="0"
     inkscape:deskcolor="#d1d1d1"
     inkscape:document-units="mm"
     inkscape:zoom="1.0146815"
     inkscape:cx="267.07887"
     inkscape:cy="385.83534"
     inkscape:window-width="2560"
     inkscape:window-height="1377"
     inkscape:window-x="-8"
     inkscape:window-y="-8"
     inkscape:window-maximized="1"
     inkscape:current-layer="layer1" />
  <defs
     id="defs1" />
  <g
     inkscape:label="Ebene 1"
     inkscape:groupmode="layer"
     id="layer1"
     transform="translate(-34.363535,-46.334384)">
    <path
       id="path29"
       style="fill:#ffffff;fill-opacity:1;stroke:none;stroke-width:0.352778"
       d="m 34.363535,52.678702 h 0.705384 v -2.530079 c 0.09922,0.0055 0.192925,0.0057 0.314192,0.0057 0.545703,0 1.118968,-0.226171 1.455209,-0.68368 0.237022,-0.314192 0.375171,-0.699871 0.375171,-1.267622 0,-0.534679 -0.154685,-0.981163 -0.457854,-1.273307 -0.319704,-0.325218 -0.79909,-0.463022 -1.366841,-0.463022 -0.402387,0 -0.744141,0.04978 -1.025261,0.12144 z m 0.705384,-3.125391 v -2.458248 c 0.09371,-0.02756 0.23151,-0.04961 0.396875,-0.04961 0.777213,0 1.041797,0.567579 1.041797,1.201477 0,0.870919 -0.468189,1.334285 -1.16272,1.334285 -0.121267,0 -0.19327,-0.01137 -0.275952,-0.02791 z m 2.410705,1.934766 c 0,0.760676 0.457509,1.262455 1.058334,1.262455 0.374826,0 0.683507,-0.198266 0.876432,-0.540019 h 0.0279 l 0.04961,0.468189 h 0.639238 c -0.0441,-0.286632 -0.04393,-0.666971 -0.04393,-1.008724 v -1.91823 c 0,-0.997699 -0.385851,-1.5875 -1.273307,-1.5875 -0.440972,0 -0.854729,0.159853 -1.036629,0.297656 l 0.154512,0.490927 c 0.209462,-0.137804 0.457681,-0.226343 0.733289,-0.226343 0.556727,0 0.705383,0.413412 0.705383,1.008724 v 0.137976 c -0.997699,0.0055 -1.890841,0.501434 -1.890841,1.614889 z m 0.689364,-0.077 c 0,-0.959115 0.854211,-1.025261 1.218013,-1.025261 v 0.898653 c 0,0.07166 0,0.165365 -0.01653,0.248047 -0.08268,0.440972 -0.347266,0.666626 -0.661459,0.666626 -0.248046,0 -0.540018,-0.20929 -0.540018,-0.788065 z m 2.440161,-2.629297 h 0.540019 v 2.568835 c 0,0.611849 0.09371,0.914845 0.264583,1.118795 0.176389,0.192925 0.424608,0.264583 0.700216,0.264583 0.225998,0 0.39119,-0.02773 0.523482,-0.07183 l -0.02739,-0.545703 c -0.08268,0.02205 -0.176562,0.0279 -0.286805,0.0279 -0.253559,0 -0.468188,-0.154512 -0.468188,-0.733288 v -2.629297 h 0.854211 v -0.540012 h -0.854209 v -1.174088 l -0.7059,0.198437 v 0.975651 h -0.540019 z m 2.338875,0 h 0.540019 v 2.568835 c 0,0.611849 0.09371,0.914845 0.264583,1.118795 0.176389,0.192925 0.424608,0.264583 0.700216,0.264583 0.225998,0 0.391191,-0.02773 0.523482,-0.07183 l -0.02739,-0.545703 c -0.08268,0.02205 -0.176562,0.0279 -0.286804,0.0279 -0.253559,0 -0.468189,-0.154512 -0.468189,-0.733288 v -2.629297 h 0.854211 v -0.540019 h -0.854211 v -1.174088 l -0.7059,0.198437 v 0.975658 h -0.540019 z m 2.458765,1.725476 c 0,1.355989 0.551043,2.226737 1.614888,2.226737 0.347266,0 0.72192,-0.07148 0.969967,-0.209289 l -0.110071,-0.523999 c -0.170876,0.09922 -0.43012,0.171049 -0.733288,0.171049 -0.51263,0 -1.047137,-0.291973 -1.052649,-1.647962 h 2.061373 c 0.01102,-0.110243 0.01137,-0.23151 0.01137,-0.396875 0,-1.008723 -0.358635,-1.962671 -1.26814,-1.962671 -0.887456,0 -1.493449,0.898826 -1.49345,2.34301 z m 0.694531,-0.507463 c 0.02756,-0.606336 0.270096,-1.284159 0.727605,-1.284159 0.336241,0 0.677994,0.396703 0.661458,1.284159 z m 2.78381,-1.758032 c 0.0055,0.330729 0.03307,0.765845 0.03307,1.146183 V 52.6787 h 0.705383 v -2.458248 c 0,-0.148828 0.01085,-0.286805 0.02739,-0.40256 0.07717,-0.51263 0.408244,-0.926041 0.854728,-0.926041 0.05512,0 0.09922,1.7e-4 0.148828,0.0057 v -0.72192 c -0.04961,0 -0.09371,-0.01137 -0.148828,-0.01137 -0.413411,0 -0.788582,0.353123 -0.937411,0.772046 h -0.01653 l -0.03824,-0.694531 z m 2.279964,0 c 0.01102,0.35829 0.03876,0.622529 0.03876,1.146183 V 52.6787 h 0.705383 v -2.79983 c 0,-0.143316 0.01085,-0.281464 0.02739,-0.391707 0.09371,-0.479557 0.374999,-0.727604 0.667143,-0.727604 0.518142,0 0.617533,0.534679 0.617533,1.058333 V 52.6787 h 0.705383 v -2.981731 c 0,-1.069357 -0.457508,-1.532723 -1.074869,-1.532723 -0.463021,0 -0.821483,0.248392 -1.014409,0.606682 h -0.0217 l -0.03307,-0.529167 z m 3.461287,4.233333 c 0.192926,0.159853 0.545703,0.258899 0.876433,0.258899 0.727603,0 1.333768,-0.429948 1.333768,-1.322916 0,-0.611849 -0.407727,-1.014409 -0.920357,-1.345138 -0.440972,-0.303168 -0.551388,-0.468361 -0.551388,-0.771529 0,-0.286632 0.192926,-0.56224 0.578776,-0.56224 0.231511,0 0.424264,0.08251 0.589629,0.192754 l 0.193269,-0.529167 c -0.187413,-0.110243 -0.452169,-0.231511 -0.799434,-0.231511 -0.689019,0 -1.218013,0.512803 -1.218013,1.229383 0,0.51263 0.308508,0.892796 0.887284,1.267623 0.451996,0.303168 0.567924,0.529511 0.567924,0.871264 0,0.396875 -0.248219,0.639238 -0.650606,0.639238 -0.286632,0 -0.5569,-0.126608 -0.716753,-0.225826 z m 4.371826,0.203606 h 0.705384 v -1.681035 l 0.248046,-0.407727 0.9648,2.088762 h 0.788065 l -1.273307,-2.568319 1.174088,-1.86862 h -0.760677 l -0.8816,1.565279 c -0.08268,0.148828 -0.154512,0.319705 -0.237194,0.496094 h -0.02222 v -3.96875 h -0.705384 z m 2.926437,-2.210201 c 0,1.559938 0.63941,2.282031 1.438672,2.282031 0.677994,0 1.477429,-0.578605 1.477429,-2.292884 0,-1.548914 -0.639238,-2.2934 -1.432988,-2.2934 -0.760677,0 -1.483113,0.678168 -1.483113,2.304253 z m 0.7059,-0.01085 c 0,-0.677994 0.120923,-1.725476 0.749308,-1.725476 0.628385,0 0.744141,1.047482 0.744141,1.725476 0,0.689019 -0.115583,1.736328 -0.72192,1.736328 -0.644922,0 -0.771529,-1.003212 -0.771529,-1.736328 z m 2.961576,-2.215885 c 0.01102,0.35829 0.03876,0.622529 0.03876,1.146183 v 3.290756 h 0.694531 v -2.816366 c 0,-0.137804 0.01085,-0.264756 0.02739,-0.386023 0.08268,-0.468533 0.380338,-0.716752 0.661458,-0.716752 0.523654,0 0.617533,0.518315 0.617533,1.014408 v 2.904733 h 0.694531 V 49.82358 c 0,-0.143316 0.01085,-0.281292 0.02739,-0.40256 0.09922,-0.413411 0.358462,-0.661458 0.650606,-0.661458 0.540193,0 0.622704,0.56224 0.622704,1.141016 v 2.778125 h 0.700215 v -2.94349 c 0,-1.129991 -0.468705,-1.570964 -1.064018,-1.570964 -0.231512,0 -0.441146,0.05547 -0.617535,0.176734 -0.165365,0.110243 -0.319533,0.286287 -0.4408,0.501261 h -0.01654 c -0.165364,-0.474045 -0.51263,-0.677995 -0.926042,-0.677995 -0.468532,0 -0.804946,0.27044 -0.997872,0.623218 h -0.0217 l -0.03307,-0.545703 z m 5.681309,0 c 0.0055,0.308681 0.03305,0.705384 0.03305,1.383378 v 4.812109 h 0.705383 v -2.199348 h 0.02222 c 0.115757,0.248046 0.358465,0.51263 0.766364,0.51263 0.700043,0 1.377694,-0.655947 1.377694,-2.298568 0,-1.46072 -0.51246,-2.287716 -1.284162,-2.287716 -0.347264,0 -0.694358,0.165365 -0.936893,0.644922 h -0.01655 l -0.03876,-0.567407 z m 0.738456,2.805513 v -1.130163 c 0,-0.115755 1.69e-4,-0.225654 0.02222,-0.335897 0.0441,-0.407899 0.330902,-0.810286 0.650607,-0.810286 0.55673,0 0.777216,0.771701 0.777216,1.686718 0,0.898481 -0.182249,1.708423 -0.772048,1.708423 -0.187413,0 -0.512286,-0.121095 -0.650089,-0.754992 -0.02755,-0.09922 -0.0279,-0.225999 -0.0279,-0.363803 z m 2.706294,0.4408 c 0,0.760677 0.457507,1.262456 1.058334,1.262456 0.374826,0 0.683507,-0.198266 0.876431,-0.540019 h 0.02738 l 0.04962,0.468189 H 77.3697 c -0.0441,-0.286632 -0.04444,-0.666971 -0.04444,-1.008724 v -1.91823 c 0,-0.997699 -0.385851,-1.5875 -1.273306,-1.5875 -0.440973,0 -0.854213,0.159853 -1.036113,0.297656 l 0.154513,0.490927 c 0.209462,-0.137804 0.457162,-0.226343 0.73277,-0.226343 0.556729,0 0.705901,0.413412 0.705901,1.008724 v 0.137976 c -0.997698,0.0055 -1.89084,0.501434 -1.89084,1.614888 z m 0.688845,-0.077 c 0,-0.959115 0.854728,-1.025261 1.21853,-1.025261 v 0.898653 c 0,0.07166 0,0.165365 -0.01655,0.248047 -0.08268,0.440972 -0.347268,0.666626 -0.661459,0.666626 -0.248049,0 -0.540537,-0.20929 -0.540537,-0.788065 z m 2.898015,1.267622 h 0.705383 v -1.681034 l 0.248048,-0.407727 0.964799,2.088762 h 0.788064 l -1.273307,-2.568319 1.174088,-1.86862 H 80.15144 l -0.882118,1.565279 c -0.08268,0.148828 -0.153995,0.319705 -0.236679,0.496094 h -0.02223 v -3.96875 H 78.30503 Z m 2.871658,-3.896919 h 0.540537 v 2.568835 c 0,0.611849 0.0937,0.914845 0.264584,1.118795 0.176389,0.192925 0.424092,0.264583 0.6997,0.264583 0.225996,0 0.391707,-0.02773 0.523999,-0.07183 l -0.0279,-0.545703 c -0.08268,0.02205 -0.176047,0.0279 -0.28629,0.0279 -0.253559,0 -0.468705,-0.154512 -0.468705,-0.733288 v -2.629297 h 0.854214 v -0.540019 h -0.854214 v -1.174088 l -0.705388,0.198444 v 0.975651 h -0.540537 z" />
  </g>
</svg>
