<?xml version="1.0" encoding="UTF-8" standalone="no"?>
<!-- Created with Inkscape (http://www.inkscape.org/) -->

<svg
   width="236.08691mm"
   height="50.666679mm"
   viewBox="0 0 236.08691 50.666679"
   version="1.1"
   id="svg1"
   inkscape:version="1.3 (0e150ed6c4, 2023-07-21)"
   sodipodi:docname="Entwurfsmuster Slogan- zweizeilig weiss.svg"
   xmlns:inkscape="http://www.inkscape.org/namespaces/inkscape"
   xmlns:sodipodi="http://sodipodi.sourceforge.net/DTD/sodipodi-0.dtd"
   xmlns="http://www.w3.org/2000/svg"
   xmlns:svg="http://www.w3.org/2000/svg">
  <sodipodi:namedview
     id="namedview1"
     pagecolor="#ffffff"
     bordercolor="#666666"
     borderopacity="1.0"
     inkscape:showpageshadow="2"
     inkscape:pageopacity="0.0"
     inkscape:pagecheckerboard="0"
     inkscape:deskcolor="#d1d1d1"
     inkscape:document-units="mm"
     inkscape:zoom="1.0146815"
     inkscape:cx="472.0693"
     inkscape:cy="428.21317"
     inkscape:window-width="2560"
     inkscape:window-height="1377"
     inkscape:window-x="-8"
     inkscape:window-y="-8"
     inkscape:window-maximized="1"
     inkscape:current-layer="layer1" />
  <defs
     id="defs1" />
  <g
     inkscape:label="Ebene 1"
     inkscape:groupmode="layer"
     id="layer1"
     transform="translate(19.80241,-35.150872)">
    <path
       id="path15"
       style="fill:#ffffff;fill-opacity:1;stroke:none;stroke-width:1.33333"
       d="m 45.90521,35.150872 c -0.8125,0 -1.85415,0.27063 -2.58331,1.08314 -0.93751,1.08333 -1.14567,2.52089 -1.14567,3.89589 v 0.77101 h -1.62522 v 1.58337 h 1.62522 v 11.33315 h 2.04174 v -11.33315 h 2.35386 v -1.58337 h -2.35386 v -0.79168 c 0,-1.6875 0.35396,-3.24993 1.81229,-3.24993 0.54167,0 0.875,0.10409 1.125,0.20825 l 0.35398,-1.60455 c -0.375,-0.1875 -0.91653,-0.31213 -1.60403,-0.31213 z m 76.69351,0 c -0.8125,0 -1.85415,0.27063 -2.58331,1.08314 -0.93751,1.08333 -1.14618,2.52089 -1.14618,3.89589 v 0.77101 h -1.62471 v 1.58337 h 1.62471 v 11.33315 h 2.04173 v -11.33315 h 2.35438 v -1.58337 h -2.35438 v -0.79168 c 0,-1.6875 0.35448,-3.24993 1.81281,-3.24993 0.54167,0 0.875,0.10409 1.125,0.20825 l 0.35398,-1.60455 c -0.375,-0.1875 -0.91653,-0.31213 -1.60403,-0.31213 z m 37.62664,0 c -0.8125,0 -1.85415,0.27063 -2.5833,1.08314 -0.93751,1.08333 -1.14567,2.52089 -1.14567,3.89589 v 0.77101 h -1.62523 v 1.58337 h 1.62523 v 11.33315 h 2.04122 v -11.33315 h 2.35438 v -1.58337 h -2.35438 v -0.79168 c 0,-1.6875 0.35448,-3.24993 1.81281,-3.24993 0.54167,0 0.87499,0.10409 1.12499,0.20825 l 0.35399,-1.60455 c -0.375,-0.1875 -0.91654,-0.31213 -1.60404,-0.31213 z m 6.21306,0 c -0.8125,0 -1.85415,0.27063 -2.58331,1.08314 -0.93751,1.08333 -1.14566,2.52089 -1.14566,3.89589 v 0.77101 h -1.62523 v 1.58337 h 1.62523 v 11.33315 h 2.04173 v -11.33315 h 2.35386 v -1.58337 h -2.35386 v -0.79168 c 0,-1.6875 0.35397,-3.24993 1.81229,-3.24993 0.54167,0 0.875,0.10409 1.125,0.20825 l 0.3545,-1.60455 c -0.375,-0.1875 -0.91705,-0.31213 -1.60455,-0.31213 z m 11.75949,0.20826 v 18.4583 h 2.04173 v -4.87515 l 0.72916,-1.2082 2.79156,6.08335 h 2.29185 l -3.68763,-7.45846 3.39566,-5.45806 h -2.20814 l -2.56263,4.56251 c -0.22917,0.4375 -0.45814,0.93712 -0.6873,1.43712 h -0.0625 v -11.54141 z m -197.14611,0.47904 v 17.97926 h 7.167 v -1.79162 h -5.12526 v -6.74997 h 4.52065 v -1.7291 h -4.52065 v -5.91695 h 4.81262 v -1.79162 z m 214.65253,0.39584 c -0.66667,0 -1.18752,0.54158 -1.18752,1.33325 0,0.8125 0.50019,1.33325 1.16685,1.33325 0.77084,0 1.29171,-0.52075 1.25005,-1.33325 0,-0.79167 -0.47938,-1.33325 -1.22938,-1.33325 z m -69.16322,0.12506 c -0.66667,0 -1.20819,0.50002 -1.20819,1.18752 0,0.66666 0.54152,1.18753 1.20819,1.18753 0.64583,0 1.125,-0.52087 1.125,-1.18753 0,-0.70834 -0.47917,-1.18752 -1.125,-1.18752 z m 4.12481,0 c -0.625,0 -1.16633,0.50002 -1.16633,1.18752 0,0.66666 0.49966,1.18753 1.16633,1.18753 0.66667,0 1.14619,-0.52087 1.14619,-1.18753 0,-0.70834 -0.50036,-1.18752 -1.14619,-1.18752 z M 3.6251,37.504732 1.58336,38.088162 v 2.81275 H 0 v 1.58337 h 1.58336 v 7.45794 c 0,1.79167 0.27102,2.66696 0.77102,3.27112 0.5,0.54167 1.22889,0.77049 2.02054,0.77049 0.66667,0 1.14584,-0.083 1.52084,-0.22892 l -0.0832,-1.5627 c -0.22916,0.0417 -0.49985,0.0837 -0.81235,0.0837 -0.75,0 -1.37511,-0.45863 -1.37511,-2.14613 v -7.64552 h 2.47943 v -1.58337 H 3.6251 Z m 89.92009,0 -2.04173,0.58343 v 2.81275 h -1.58337 v 1.58337 h 1.58337 v 7.45794 c 0,1.79167 0.27101,2.66696 0.77101,3.27112 0.5,0.54167 1.22889,0.77049 2.02055,0.77049 0.66667,0 1.14584,-0.083 1.52083,-0.22892 l -0.0832,-1.5627 c -0.22916,0.0417 -0.49986,0.0837 -0.81236,0.0837 -0.75,0 -1.37511,-0.45863 -1.37511,-2.14613 v -7.64552 h 2.47944 v -1.58337 h -2.47944 z m 96.74707,0 -2.04174,0.58343 v 2.81275 h -1.58336 v 1.58337 h 1.58336 v 7.45794 c 0,1.79167 0.2705,2.66696 0.7705,3.27112 0.5,0.54167 1.2294,0.77049 2.02106,0.77049 0.66667,0 1.14584,-0.083 1.52084,-0.22892 l -0.0832,-1.5627 c -0.22916,0.0417 -0.50037,0.0837 -0.81287,0.0837 -0.75,0 -1.37459,-0.45863 -1.37459,-2.14613 v -7.64552 h 2.47892 v -1.58337 h -2.47892 z m -195.12814,3.18741 c -1.375,0 -2.41665,0.72928 -2.97915,1.77095 h -0.0413 l -0.10439,-1.56218 h -1.79162 c 0.0208,1.04167 0.10439,1.83313 0.10439,3.33313 v 9.58339 h 2.0624 v -8.12508 c 0,-0.4375 0.0207,-0.83317 0.0832,-1.14567 0.25,-1.39583 1.08318,-2.12493 1.93735,-2.12493 1.5,0 1.79162,1.56218 1.79162,3.08301 v 8.31267 h 2.04174 v -8.66665 c 0,-3.125 -1.33336,-4.45864 -3.1042,-4.45864 z m 43.71774,0 c -1.1875,0 -2.29169,1.02135 -2.70836,2.25051 H 36.111 l -0.10387,-2.04174 h -1.83348 c 0.0208,0.97917 0.10387,2.2498 0.10387,3.33313 v 9.58339 h 2.04174 v -7.14581 c 0,-0.4375 0.0421,-0.83352 0.0837,-1.16686 0.20833,-1.5 1.18725,-2.70836 2.47892,-2.70836 0.16666,0 0.29186,1.6e-4 0.4377,0.0419 v -2.10427 c -0.14584,0 -0.27104,-0.0418 -0.4377,-0.0418 z m 12.00754,0 c -2,0 -3.5419,1.50042 -3.5419,3.58376 0,1.47916 0.8958,2.5831 2.5833,3.66644 1.3125,0.89583 1.64589,1.5628 1.64589,2.54196 0,1.14584 -0.70799,1.87482 -1.89549,1.87482 -0.8125,0 -1.62525,-0.37495 -2.08359,-0.66662 l -0.49971,1.54151 c 0.5625,0.45833 1.60378,0.74982 2.56212,0.74982 2.10415,0 3.87521,-1.24986 3.87521,-3.85403 0,-1.77083 -1.18733,-2.95822 -2.6665,-3.91655 -1.29167,-0.875 -1.60456,-1.35433 -1.60456,-2.22932 0,-0.83333 0.56292,-1.62471 1.66709,-1.62471 0.66667,0 1.22874,0.22907 1.7079,0.54157 l 0.56276,-1.54151 c -0.52083,-0.3125 -1.29168,-0.66714 -2.31252,-0.66714 z m 9.65264,0 c -1.35416,0 -2.35412,0.77115 -2.91662,1.81281 h -0.0419 l -0.10438,-1.60404 h -1.79163 c 0.0208,1.04167 0.10439,1.83313 0.10439,3.33313 v 9.58339 h 2.02055 v -8.18761 c 0,-0.39583 0.0421,-0.77083 0.0837,-1.125 0.25,-1.35415 1.10418,-2.08307 1.91667,-2.08307 1.52083,0 1.79163,1.49979 1.79163,2.93729 v 8.45839 h 2.02054 v -8.29148 c 0,-0.4375 0.0416,-0.83352 0.0832,-1.16685 0.29167,-1.20833 1.04184,-1.93735 1.89601,-1.93735 1.58333,0 1.81281,1.64579 1.81281,3.31246 v 8.08322 h 2.02055 v -8.56278 c 0,-3.27083 -1.35436,-4.56251 -3.08353,-4.56251 -0.66667,0 -1.2708,0.16673 -1.79162,0.5209 -0.47917,0.31249 -0.9374,0.81247 -1.27073,1.4583 h -0.0625 c -0.47917,-1.39582 -1.47883,-1.9792 -2.68717,-1.9792 z m 25.6005,0 c -1.99999,0 -3.54138,1.50042 -3.54138,3.58376 0,1.47916 0.8958,2.5831 2.5833,3.66644 1.3125,0.89583 1.6459,1.5628 1.6459,2.54196 0,1.14584 -0.70851,1.87482 -1.89601,1.87482 -0.8125,0 -1.62474,-0.37495 -2.08308,-0.66662 l -0.50023,1.54151 c 0.5625,0.45833 1.6043,0.74982 2.56264,0.74982 2.10416,0 3.8747,-1.24986 3.8747,-3.85403 0,-1.77083 -1.18734,-2.95822 -2.66651,-3.91655 -1.29167,-0.875 -1.60403,-1.35433 -1.60403,-2.22932 0,-0.83333 0.56239,-1.62471 1.66656,-1.62471 0.66667,0 1.22926,0.22907 1.70842,0.54157 l 0.56224,-1.54151 c -0.52083,-0.3125 -1.29168,-0.66714 -2.31252,-0.66714 z m 15.41457,0 c -2.58333,0 -4.35426,2.62551 -4.35426,6.81302 0,3.93749 1.60407,6.47867 4.70824,6.47867 1,0 2.10441,-0.22894 2.81275,-0.62477 l -0.31264,-1.52083 c -0.5,0.29167 -1.25029,0.52089 -2.14613,0.52089 -1.47915,0 -3.02067,-0.85429 -3.06234,-4.81262 h 6.00015 c 0.0417,-0.3125 0.0413,-0.6665 0.0413,-1.14567 0,-2.93749 -1.04128,-5.70869 -3.68711,-5.70869 z m 10.60452,0 c -1.1875,0 -2.29118,1.02135 -2.70785,2.25051 h -0.0625 l -0.10438,-2.04174 h -1.83348 c 0.0208,0.97917 0.10438,2.2498 0.10438,3.33313 v 9.58339 h 2.04174 v -7.14581 c 0,-0.4375 0.0416,-0.83352 0.0832,-1.16686 0.20833,-1.5 1.18725,-2.70836 2.47892,-2.70836 0.16666,0 0.29186,1.6e-4 0.4377,0.0419 v -2.10427 c -0.14584,0 -0.27104,-0.0418 -0.4377,-0.0418 z m 27.8138,0 c -1.1875,0 -2.29169,1.02135 -2.70836,2.25051 h -0.0625 l -0.10438,-2.04174 h -1.83348 c 0.0208,0.97917 0.10438,2.2498 0.10438,3.33313 v 9.58339 h 2.04174 v -7.14581 c 0,-0.4375 0.0416,-0.83352 0.0832,-1.16686 0.20833,-1.5 1.18776,-2.70836 2.47943,-2.70836 0.16666,0 0.29135,1.6e-4 0.43719,0.0419 v -2.10427 c -0.14584,0 -0.27053,-0.0418 -0.43719,-0.0418 z m 10.0614,0 c -2.58332,0 -4.35425,2.62551 -4.35425,6.81302 0,3.93749 1.60459,6.47867 4.70875,6.47867 1,0 2.1039,-0.22894 2.81224,-0.62477 l -0.31265,-1.52083 c -0.5,0.29167 -1.24976,0.52089 -2.1456,0.52089 -1.47916,0 -3.02068,-0.85429 -3.06235,-4.81262 h 5.99964 c 0.0417,-0.3125 0.0419,-0.6665 0.0419,-1.14567 0,-2.93749 -1.04179,-5.70869 -3.68763,-5.70869 z m 22.16041,0 c -2.58333,0 -4.35426,2.62551 -4.35426,6.81302 0,3.93749 1.60408,6.47867 4.70824,6.47867 1,0 2.10441,-0.22894 2.81275,-0.62477 l -0.31264,-1.52083 c -0.5,0.29167 -1.25028,0.52089 -2.14612,0.52089 -1.47916,0 -3.02068,-0.85429 -3.06235,-4.81262 h 6.00015 c 0.0417,-0.3125 0.0413,-0.6665 0.0413,-1.14567 0,-2.93749 -1.04127,-5.70869 -3.68711,-5.70869 z m 40.3996,0 c -2.58333,0 -4.35374,2.62551 -4.35374,6.81302 0,3.93749 1.60407,6.47867 4.70824,6.47867 1,0 2.10389,-0.22894 2.81223,-0.62477 l -0.31212,-1.52083 c -0.5,0.29167 -1.25029,0.52089 -2.14613,0.52089 -1.47915,0 -3.02067,-0.85429 -3.06234,-4.81262 h 5.99963 c 0.0417,-0.3125 0.0419,-0.6665 0.0419,-1.14567 0,-2.93749 -1.04179,-5.70869 -3.68763,-5.70869 z m -205.35491,0.20877 3.14555,12.91652 h 1.72961 l 1.54151,-6.18773 c 0.29166,-1.22917 0.54148,-2.41639 0.74982,-3.93723 h 0.0625 c 0.20833,1.45834 0.39598,2.60403 0.70848,3.85403 l 1.50017,6.27093 h 1.66656 l 3.27061,-12.91652 h -2.06241 l -1.22938,6.27042 c -0.29167,1.47917 -0.52064,2.8125 -0.6873,4.16667 h -0.10439 c -0.22917,-1.4375 -0.52052,-2.79154 -0.83302,-4.24987 l -1.41697,-6.18722 h -1.56218 l -1.50016,6.3748 c -0.29167,1.22917 -0.60419,2.72896 -0.79169,4.06229 h -0.12505 c -0.14583,-1.33333 -0.4373,-2.72915 -0.6873,-4.10414 l -1.25005,-6.33295 z m 16.26826,0 v 8.16643 c 0,3.20832 0.87522,4.95835 3.14606,4.95835 1.375,0 2.37455,-0.9377 2.77038,-1.5627 h 0.0419 l 0.14573,1.35444 h 1.77095 c -0.0208,-0.95833 -0.10387,-2.0832 -0.10387,-3.52071 v -9.39581 h -2.04173 v 8.52041 c 0,0.41667 -0.0419,0.81268 -0.10439,1.16685 -0.10417,0.58333 -0.64582,1.70843 -1.85415,1.70843 -1.41667,0 -1.72909,-1.49989 -1.72909,-3.52072 v -7.87497 z m 48.90658,0 v 8.16643 c 0,3.20832 0.87522,4.95835 3.14606,4.95835 1.375,0 2.37506,-0.9377 2.77089,-1.5627 h 0.0413 l 0.14624,1.35444 h 1.77044 c -0.0208,-0.95833 -0.10387,-2.0832 -0.10387,-3.52071 v -9.39581 h -2.04174 v 8.52041 c 0,0.41667 -0.0419,0.81268 -0.10438,1.16685 -0.10417,0.58333 -0.64583,1.70843 -1.85415,1.70843 -1.41667,0 -1.7291,-1.49989 -1.7291,-3.52072 v -7.87497 z m 52.18699,0 v 8.16643 c 0,3.20832 0.87471,4.95835 3.14555,4.95835 1.37499,0 2.37506,-0.9377 2.77089,-1.5627 h 0.0419 l 0.14573,1.35444 h 1.77095 c -0.0208,-0.95833 -0.10438,-2.0832 -0.10438,-3.52071 v -9.39581 h -2.04174 v 8.52041 c 0,0.41667 -0.0414,0.81268 -0.10387,1.16685 -0.10417,0.58333 -0.64582,1.70843 -1.85415,1.70843 -1.41667,0 -1.72909,-1.49989 -1.72909,-3.52072 v -7.87497 z m 70.1213,0 v 12.91652 h 2.06293 v -12.91652 z m 3.95687,0 3.35431,12.91652 h 1.83297 l 3.3755,-12.91652 h -2.04173 l -1.60456,7.27087 c -0.1875,0.97917 -0.39538,2.06221 -0.52038,3.14555 h -0.0837 c -0.16667,-1.125 -0.37474,-2.27055 -0.56224,-3.14555 l -1.62523,-7.27087 z m -97.3336,1.39578 c 0.97916,0 1.95835,1.14563 1.91668,3.72897 h -4.02042 c 0.0625,-1.75 0.7704,-3.72897 2.10374,-3.72897 z m 48.48025,0 c 0.97916,0 1.95835,1.14563 1.91668,3.72897 h -4.02095 c 0.0625,-1.75 0.77093,-3.72897 2.10427,-3.72897 z m 22.15989,0 c 0.97916,0 1.95835,1.14563 1.91668,3.72897 h -4.02043 c 0.0625,-1.75 0.77041,-3.72897 2.10375,-3.72897 z m 40.40011,0 c 0.97916,0 1.95835,1.14563 1.91668,3.72897 h -4.02094 c 0.0625,-1.75 0.77093,-3.72897 2.10426,-3.72897 z M 5.34541,61.817462 c -0.8125,0 -1.85415,0.27063 -2.58331,1.08314 -0.93751,1.08333 -1.14618,2.52089 -1.14618,3.89589 v 0.77101 h -1.62471 v 1.58336 h 1.62471 v 11.33316 h 2.04174 v -11.33316 h 2.35437 v -1.58336 H 3.65766 v -0.79168 c 0,-1.6875 0.35396,-3.24993 1.81229,-3.24993 0.54167,0 0.87499,0.10409 1.12499,0.20825 l 0.3545,-1.60404 c -0.375,-0.1875 -0.91653,-0.31264 -1.60403,-0.31264 z m 106.60951,0.20826 v 18.4583 h 2.04174 v -4.87515 l 0.72915,-1.2082 2.79156,6.08335 h 2.29185 l -3.68763,-7.45846 3.39618,-5.45806 h -2.20865 l -2.56212,4.56251 c -0.22917,0.4375 -0.45865,0.93764 -0.68781,1.43764 h -0.0625 v -11.54193 z m 9.59425,0 v 18.4583 h 2.0624 v -18.4583 z m -136.35137,0.33331 c -2.83333,0 -4.72943,1.99991 -4.72943,4.70824 0,2.33334 1.95832,4.00021 3.37499,5.00021 1.41666,1.0625 2.37505,2.06231 2.37505,3.72897 0,1.8125 -1.12498,3.04168 -2.97915,3.04168 -0.91667,0 -1.97913,-0.33333 -2.5833,-0.72916 l -0.45837,1.77096 c 0.5,0.35417 1.81251,0.77101 3.04167,0.77101 2.85417,0 5.04156,-1.95874 5.04156,-5.04207 0,-2 -0.95821,-3.66644 -3.12488,-5.18728 -1.70834,-1.20833 -2.64583,-1.91679 -2.64583,-3.68763 0,-1.22917 0.83331,-2.56264 2.5833,-2.56264 0.9375,0 1.6878,0.29212 2.14613,0.60462 l 0.49971,-1.75028 c -0.41666,-0.33334 -1.41645,-0.66663 -2.54145,-0.66663 z m 114.53048,0.54157 c -0.66667,0 -1.18753,0.54158 -1.18753,1.33325 0,0.8125 0.5002,1.33377 1.16686,1.33377 0.77084,0 1.29171,-0.52127 1.25005,-1.33377 0,-0.79167 -0.47938,-1.33325 -1.22938,-1.33325 z m -89.70305,1.27072 -2.04174,0.58343 v 2.81275 H 6.40012 v 1.58336 h 1.58337 v 7.45846 c 0,1.79167 0.27101,2.66645 0.77101,3.27061 0.5,0.54167 1.22889,0.77101 2.02055,0.77101 0.66667,0 1.14584,-0.0836 1.52084,-0.22945 l -0.0832,-1.56217 c -0.22916,0.0417 -0.49985,0.0832 -0.81235,0.0832 -0.75,0 -1.37511,-0.45863 -1.37511,-2.14613 v -7.64553 h 2.47891 v -1.58336 h -2.47891 z m 68.79735,0 -2.04174,0.58343 v 2.81275 h -1.58336 v 1.58336 h 1.58336 v 7.45846 c 0,1.79167 0.27101,2.66645 0.77101,3.27061 0.5,0.54167 1.22889,0.77101 2.02055,0.77101 0.66667,0 1.14584,-0.0836 1.52084,-0.22945 l -0.0832,-1.56217 c -0.22916,0.0417 -0.49985,0.0832 -0.81235,0.0832 -0.75,0 -1.37511,-0.45863 -1.37511,-2.14613 v -7.64553 h 2.47943 v -1.58336 h -2.47943 z m -84.21967,3.18792 c -2.22917,0 -4.33358,1.97896 -4.33358,6.70812 0,4.52084 1.87484,6.62492 4.18734,6.62492 1.97916,0 4.29172,-1.66677 4.29172,-6.66678 0,-4.49999 -1.85382,-6.66626 -4.14548,-6.66626 z m 38.23126,0 c -1.29166,0 -2.47935,0.45838 -3.021,0.85421 l 0.45837,1.43713 c 0.60416,-0.39583 1.33327,-0.66663 2.12493,-0.66663 1.625,0 2.06292,1.20865 2.06292,2.93781 v 0.39584 c -2.91665,0.0417 -5.50044,1.47908 -5.50044,4.70824 0,2.20833 1.3337,3.66644 3.06287,3.66644 1.10416,0 1.99961,-0.58301 2.56211,-1.56218 h 0.0837 l 0.14573,1.35392 h 1.85415 c -0.125,-0.83333 -0.12506,-1.93729 -0.12506,-2.93729 v -5.56245 c 0,-2.91665 -1.12496,-4.62504 -3.7083,-4.62504 z m 11.29853,0 c -1.18749,0 -2.29169,1.02084 -2.70836,2.24999 h -0.0625 l -0.10438,-2.04173 h -1.83348 c 0.0208,0.97917 0.10438,2.2498 0.10438,3.33313 v 9.58339 h 2.04174 v -7.14581 c 0,-0.4375 0.0416,-0.83352 0.0832,-1.16686 0.20833,-1.5 1.18777,-2.70836 2.47943,-2.70836 0.16666,0 0.29135,1.6e-4 0.43719,0.0419 v -2.10427 c -0.14584,0 -0.27053,-0.0413 -0.43719,-0.0413 z m 5.58158,0 c -2.58333,0 -4.35426,2.625 -4.35426,6.81251 0,3.93749 1.60407,6.47919 4.70824,6.47919 1,0 2.10441,-0.22946 2.81275,-0.62529 l -0.31264,-1.52083 c -0.5,0.29167 -1.24977,0.52089 -2.14561,0.52089 -1.47916,0 -3.02119,-0.85429 -3.06286,-4.81262 h 6.00015 c 0.0417,-0.3125 0.0419,-0.6665 0.0419,-1.14567 0,-2.9375 -1.0418,-5.70818 -3.68763,-5.70818 z m 9.81335,0 c -2.58333,0 -4.35426,2.625 -4.35426,6.81251 0,3.93749 1.60408,6.47919 4.70824,6.47919 1,0 2.10441,-0.22946 2.81275,-0.62529 l -0.31264,-1.52083 c -0.5,0.29167 -1.24977,0.52089 -2.14561,0.52089 -1.47915,0 -3.02119,-0.85429 -3.06286,-4.81262 h 6.00015 c 0.0417,-0.3125 0.0419,-0.6665 0.0419,-1.14567 0,-2.9375 -1.04179,-5.70818 -3.68763,-5.70818 z m 10.83396,0 c -1.37499,0 -2.41664,0.72877 -2.97914,1.77044 h -0.0419 l -0.10387,-1.56218 h -1.79162 c 0.0208,1.04167 0.10387,1.83313 0.10387,3.33313 l 5.2e-4,9.58339 h 2.0624 v -8.12508 c 0,-0.4375 0.0207,-0.83317 0.0832,-1.14567 0.25,-1.39583 1.08318,-2.12493 1.93735,-2.12493 1.5,0 1.79162,1.56218 1.79162,3.08301 v 8.31267 h 2.04174 v -8.66665 c 0,-3.125 -1.33337,-4.45813 -3.10421,-4.45813 z m 71.97339,0 c -1.375,0 -2.41665,0.72877 -2.97915,1.77044 h -0.0419 l -0.10386,-1.56218 h -1.79163 c 0.0208,1.04167 0.10387,1.83313 0.10387,3.33313 v 9.58339 h 2.06293 v -8.12508 c 0,-0.4375 0.0207,-0.83317 0.0832,-1.14567 0.24999,-1.39583 1.08318,-2.12493 1.93734,-2.12493 1.5,0 1.79163,1.56218 1.79163,3.08301 v 8.31267 h 2.04173 v -8.66665 c 0,-3.125 -1.33336,-4.45813 -3.1042,-4.45813 z m 9.62112,0 c -1.89583,0 -4.0628,1.9788 -4.0628,6.72879 0,3.79167 1.50035,6.37532 3.79201,6.37532 1.08333,0 2.02058,-0.56252 2.47892,-1.58336 h 0.0625 v 1.31258 c 0,2.93751 -1.02084,3.93723 -2.64583,3.93723 -1.04166,0 -1.89572,-0.29141 -2.39572,-0.56224 l -0.47904,1.60403 c 0.66667,0.375 1.7289,0.64596 2.81223,0.64596 1.4375,0 2.66667,-0.49994 3.43751,-1.39578 0.85416,-0.91666 1.29192,-2.20864 1.29192,-5.58364 v -7.22902 c 0,-1.97916 0.083,-3.12494 0.10386,-4.04161 h -1.83348 l -0.10386,1.47898 h -0.0625 c -0.375,-0.77083 -1.02072,-1.68724 -2.39572,-1.68724 z m -43.62525,0.0413 c -3.22916,0 -5.10408,3.0003 -5.10408,6.70864 0,4.27082 1.89559,6.54172 4.72891,6.54172 0.89583,0 1.66712,-0.22956 2.12545,-0.47956 l -0.2713,-1.58337 c -0.47917,0.20833 -0.91648,0.35451 -1.47898,0.35451 -1.89582,0 -3.04167,-1.81247 -3.04167,-4.8333 0,-2.54167 0.93748,-4.97954 2.97914,-4.97954 0.66667,0 1.20866,0.20831 1.4795,0.33331 l 0.39584,-1.66656 c -0.375,-0.22917 -1.12531,-0.39585 -1.81281,-0.39585 z m -94.69189,0.16692 3.14606,12.91652 h 1.72909 l 1.54151,-6.18722 c 0.29166,-1.22916 0.542,-2.4169 0.75034,-3.93774 h 0.0625 c 0.20833,1.45834 0.39547,2.60403 0.70797,3.85403 l 1.50017,6.27093 h 1.66656 l 3.27112,-12.91652 h -2.06241 l -1.22938,6.27093 c -0.29167,1.47917 -0.52064,2.81251 -0.6873,4.16667 h -0.10438 c -0.22917,-1.43749 -0.52104,-2.79205 -0.83354,-4.25038 l -1.41645,-6.18722 h -1.5627 l -1.49965,6.3748 c -0.29167,1.22917 -0.60418,2.72948 -0.79168,4.0628 h -0.12506 c -0.14583,-1.33332 -0.43781,-2.72914 -0.68781,-4.10414 l -1.24954,-6.33346 z m 68.80045,0 3.14554,12.91652 h 1.7291 l 1.54202,-6.18722 c 0.29166,-1.22916 0.54149,-2.4169 0.74983,-3.93774 h 0.0625 c 0.20833,1.45834 0.39598,2.60403 0.70848,3.85403 l 1.49965,6.27093 h 1.66708 l 3.2706,-12.91652 h -2.0624 l -1.22939,6.27093 c -0.29166,1.47917 -0.52063,2.81251 -0.68729,4.16667 h -0.10439 c -0.22917,-1.43749 -0.52052,-2.79205 -0.83302,-4.25038 l -1.41697,-6.18722 h -1.56218 l -1.50017,6.3748 c -0.29167,1.22917 -0.60418,2.72948 -0.79168,4.0628 h -0.12506 c -0.14583,-1.33332 -0.43729,-2.72914 -0.68729,-4.10414 l -1.25005,-6.33346 z m 16.31012,0 v 12.91652 h 2.0624 v -12.91652 z m 27.98485,0 v 8.16643 c 0,3.20832 0.87471,4.95835 3.14555,4.95835 1.37499,0 2.37506,-0.93718 2.77089,-1.56218 h 0.0419 l 0.14573,1.35392 h 1.77095 c -0.0208,-0.95833 -0.10438,-2.0832 -0.10438,-3.52071 v -9.39581 h -2.04174 v 8.52093 c 0,0.41667 -0.0414,0.81216 -0.10387,1.16633 -0.10417,0.58333 -0.64582,1.70843 -1.85415,1.70843 -1.41667,0 -1.72909,-1.49989 -1.72909,-3.52072 v -7.87497 z m -77.22836,1.39578 c 0.97916,0 1.95835,1.14563 1.91668,3.72897 h -4.02094 c 0.0625,-1.75 0.77092,-3.72897 2.10426,-3.72897 z m 9.81335,0 c 0.97916,0 1.95835,1.14563 1.91668,3.72897 h -4.02094 c 0.0625,-1.75 0.77093,-3.72897 2.10426,-3.72897 z m -64.80017,0.0625 c 1.81249,0 2.14612,3.04136 2.14612,4.99969 0,2 -0.33344,5.04207 -2.10427,5.04207 -1.85416,0 -2.22932,-2.89623 -2.22932,-5.04207 0,-1.95833 0.33331,-4.99969 2.18747,-4.99969 z m 157.72835,0.10387 c 1.16667,0 1.62498,1.08354 1.85415,1.95853 0.0833,0.27083 0.12506,0.62491 0.12506,0.93741 v 3.72949 c 0,0.375 -0.0416,0.7917 -0.14573,1.18753 -0.41666,1.54167 -1.22931,1.83296 -1.83348,1.83296 -1.25,0 -2.29185,-1.49978 -2.29185,-4.79144 0,-2.85417 0.79185,-4.85448 2.29185,-4.85448 z m -117.72563,4.68757 v 2.60449 c 0,0.22916 -3e-5,0.47915 -0.0625,0.72915 -0.25,1.27084 -1.02085,1.93735 -1.91668,1.93735 -0.72916,0 -1.58336,-0.60435 -1.58336,-2.29185 0,-2.79166 2.47924,-2.97914 3.56257,-2.97914 z" />
  </g>
</svg>
